<?xml version="1.0" encoding="utf-8"?>
<!-- Generated by IcoMoon.io -->
<!DOCTYPE svg PUBLIC "-//W3C//DTD SVG 1.1//EN" "http://www.w3.org/Graphics/SVG/1.1/DTD/svg11.dtd">
<svg version="1.1" xmlns="http://www.w3.org/2000/svg" xmlns:xlink="http://www.w3.org/1999/xlink" width="48" height="48" viewBox="0 0 48 48">
	<path d="M41.818 8.818l-5.636-5.636c-1.75-1.75-5.207-3.182-7.682-3.182h-21c-2.475 0-4.5 2.025-4.5 4.5v39c0 2.475 2.025 4.5 4.5 4.5h33c2.475 0 4.5-2.025 4.5-4.5v-27c0-2.475-1.432-5.932-3.182-7.682zM30 6.354c0.103 0.038 0.209 0.079 0.317 0.124 0.847 0.351 1.434 0.758 1.623 0.947l5.636 5.636c0.188 0.188 0.596 0.776 0.947 1.623 0.045 0.108 0.086 0.214 0.124 0.317h-8.646v-8.646zM39 42h-30v-36h18v12h12v24zM12 24h24v3h-24zM12 30h24v3h-24zM12 36h24v3h-24z" fill="#000000" />
</svg>
