<?xml version="1.0" encoding="UTF-8" standalone="no"?>
<!-- Created with Inkscape (http://www.inkscape.org/) -->

<svg
   xmlns:dc="http://purl.org/dc/elements/1.1/"
   xmlns:cc="http://creativecommons.org/ns#"
   xmlns:rdf="http://www.w3.org/1999/02/22-rdf-syntax-ns#"
   xmlns:svg="http://www.w3.org/2000/svg"
   xmlns="http://www.w3.org/2000/svg"
   version="1.1"
   width="48"
   height="48"
   viewBox="0 0 48 48"
   id="Layer_1"
   xml:space="preserve"><metadata
   id="metadata4238"><rdf:RDF><cc:Work
       rdf:about=""><dc:format>image/svg+xml</dc:format><dc:type
         rdf:resource="http://purl.org/dc/dcmitype/StillImage" /><dc:title></dc:title></cc:Work></rdf:RDF></metadata><defs
   id="defs4236" />

<g
   transform="matrix(3.3910609,0,0,3.3910609,-1314.3912,-1333.4236)"
   id="g4723"
   style="display:inline"><g
     transform="matrix(1.00052,0,0,1.00052,-18.842242,-0.1340058)"
     id="g5179"
     style="display:inline"><path
       d="m 413.95386,400.70458 2.87968,0 0,2.87968 -2.87968,0 z"
       id="path4988"
       style="color:#000000;fill:#000000;fill-opacity:1;stroke:none;stroke-width:1.70000005;marker:none;visibility:visible;display:inline;overflow:visible;enable-background:accumulate" /><path
       d="m 410.09644,400.70458 2.87961,0 0,2.87968 -2.87961,0 z"
       id="path4990"
       style="color:#000000;fill:#000000;fill-opacity:1;stroke:none;stroke-width:1.70000005;marker:none;visibility:visible;display:inline;overflow:visible;enable-background:accumulate" /><path
       d="m 406.23895,400.70458 2.87969,0 0,2.87968 -2.87969,0 z"
       id="path4992"
       style="color:#000000;fill:#000000;fill-opacity:1;stroke:none;stroke-width:1.70000005;marker:none;visibility:visible;display:inline;overflow:visible;enable-background:accumulate" /><path
       d="m 14.90625,0.03125 c -1.985628,0 -3.796749,0.77301766 -5.125,2.03125 L 9.78125,0.5 0,0.5 l 0,9.75 7.46875,0 0,2.8125 -7.46875,0 0,9.78125 9.78125,0 0,-0.46875 c 1.328251,1.258232 3.139372,2.03125 5.125,2.03125 l 25.65625,0 c 4.116412,0 7.40625,-3.289838 7.40625,-7.40625 l 0,-9.53125 c 0,-4.1164119 -3.289838,-7.4375 -7.40625,-7.4375 l -25.65625,0 z m 0,1.375 25.65625,0 c 3.38804,0 6.03125,2.6744596 6.03125,6.0625 l 0,9.53125 c 0,3.38804 -2.64321,6.15625 -6.03125,6.15625 l -25.65625,0 c -3.38804,0 -6.0625,-2.76821 -6.0625,-6.15625 l 0,-9.53125 c 0,-3.3880404 2.67446,-6.0625 6.0625,-6.0625 z"
       transform="matrix(0.2947397,0,0,0.2947397,406.23572,393.14681)"
       id="path4994"
       style="color:#000000;fill:#000000;fill-opacity:1;stroke:none;stroke-width:1.70000005;marker:none;visibility:visible;display:inline;overflow:visible;enable-background:accumulate" /><path
       d="m 413.95386,404.41135 2.87968,0 0,2.87968 -2.87968,0 z"
       id="path4998"
       style="color:#000000;fill:#000000;fill-opacity:1;stroke:none;stroke-width:1.70000005;marker:none;visibility:visible;display:inline;overflow:visible;enable-background:accumulate" /><path
       d="m 410.09644,404.41135 2.87961,0 0,2.87968 -2.87961,0 z"
       id="path5000"
       style="color:#000000;fill:#000000;fill-opacity:1;stroke:none;stroke-width:1.70000005;marker:none;visibility:visible;display:inline;overflow:visible;enable-background:accumulate" /><path
       d="m 406.23895,404.41135 2.87969,0 0,2.87968 -2.87969,0 z"
       id="path5002"
       style="color:#000000;fill:#000000;fill-opacity:1;stroke:none;stroke-width:1.70000005;marker:none;visibility:visible;display:inline;overflow:visible;enable-background:accumulate" /><path
       d="m 411.30722,397.13345 0,-0.48242 1.24609,0 0,1.14063 c -0.12109,0.11718 -0.29655,0.22037 -0.52636,0.30957 -0.22982,0.0892 -0.46257,0.13379 -0.69825,0.13379 -0.29948,0 -0.56054,-0.0628 -0.7832,-0.18848 -0.22266,-0.12565 -0.38997,-0.30534 -0.50195,-0.53906 -0.11198,-0.23373 -0.16797,-0.48796 -0.16797,-0.7627 0,-0.29817 0.0625,-0.56315 0.1875,-0.79492 0.125,-0.23177 0.30794,-0.4095 0.54883,-0.5332 0.18359,-0.095 0.41211,-0.14258 0.68554,-0.14258 0.35547,0 0.63314,0.0745 0.83301,0.22363 0.19987,0.14909 0.32845,0.35515 0.38574,0.61817 l -0.57421,0.10742 c -0.0404,-0.14063 -0.11622,-0.25163 -0.22754,-0.33301 -0.11133,-0.0814 -0.25033,-0.12207 -0.417,-0.12207 -0.2526,0 -0.45345,0.0801 -0.60253,0.24023 -0.14909,0.16016 -0.22364,0.39779 -0.22364,0.71289 0,0.33985 0.0755,0.59473 0.22657,0.76465 0.15104,0.16992 0.34895,0.25489 0.59375,0.25489 0.12109,0 0.24251,-0.0238 0.36425,-0.0713 0.12175,-0.0475 0.22624,-0.10515 0.31348,-0.17286 l 0,-0.36328 z"
       id="path6252"
       style="font-size:4px;font-weight:bold;-inkscape-font-specification:Sans Bold" /><path
       d="m 413.81503,398.18619 -1.02343,-2.86328 0.62695,0 0.72461,2.11914 0.70117,-2.11914 0.61328,0 -1.02539,2.86328 z"
       id="path6254"
       style="font-size:4px;font-weight:bold;-inkscape-font-specification:Sans Bold" /><path
       d="m 415.73886,398.18619 0,-2.86328 0.57813,0 0,2.86328 z"
       id="path6256"
       style="font-size:4px;font-weight:bold;-inkscape-font-specification:Sans Bold" /><path
       d="m 416.61777,398.18619 0,-0.52149 1.5039,-1.85742 -1.33398,0 0,-0.48437 2.0957,0 0,0.44922 -1.56836,1.93164 1.62891,0 0,0.48242 z"
       id="path6258"
       style="font-size:4px;font-weight:bold;-inkscape-font-specification:Sans Bold" /></g></g></svg>