<?xml version="1.0" encoding="utf-8"?>
<!-- Generator: Adobe Illustrator 16.0.0, SVG Export Plug-In . SVG Version: 6.00 Build 0)  -->
<!DOCTYPE svg PUBLIC "-//W3C//DTD SVG 1.1//EN" "http://www.w3.org/Graphics/SVG/1.1/DTD/svg11.dtd">
<svg version="1.1" id="Layer_1" xmlns="http://www.w3.org/2000/svg" xmlns:xlink="http://www.w3.org/1999/xlink" x="0px" y="0px"
	 width="48px" height="48px" viewBox="0 0 48 48" enable-background="new 0 0 48 48" xml:space="preserve">
<path id="path3765" d="M47.818,24.001c0,13.159-10.663,23.817-23.817,23.817c-13.155,0-23.818-10.658-23.818-23.817
	c0-13.152,10.664-23.818,23.818-23.818C37.155,0.183,47.818,10.849,47.818,24.001z"/>
<path fill="#FFFFFF" d="M26.294,30.534h-5.084c-0.013-0.73-0.02-1.177-0.02-1.336c0-1.647,0.272-3.004,0.817-4.067
	c0.544-1.063,1.635-2.26,3.269-3.588c1.635-1.329,2.611-2.2,2.932-2.612c0.49-0.651,0.736-1.369,0.736-2.153
	c0-1.09-0.434-2.023-1.305-2.801c-0.871-0.777-2.044-1.166-3.519-1.166c-1.422,0-2.612,0.405-3.569,1.216
	c-0.957,0.811-1.615,2.047-1.974,3.708l-5.144-0.638c0.146-2.379,1.16-4.399,3.041-6.061c1.88-1.662,4.35-2.492,7.407-2.492
	c3.217,0,5.774,0.841,7.676,2.522c1.9,1.682,2.85,3.639,2.85,5.872c0,1.236-0.348,2.406-1.045,3.509
	c-0.699,1.104-2.191,2.605-4.477,4.505c-1.184,0.984-1.918,1.774-2.203,2.373C26.396,27.922,26.267,28.992,26.294,30.534z
	 M21.209,38.07v-5.603h5.602v5.603H21.209z"/>
</svg>
