<?xml version="1.0" encoding="utf-8"?>
<!-- Generator: Adobe Illustrator 16.0.0, SVG Export Plug-In . SVG Version: 6.00 Build 0)  -->
<!DOCTYPE svg PUBLIC "-//W3C//DTD SVG 1.1//EN" "http://www.w3.org/Graphics/SVG/1.1/DTD/svg11.dtd">
<svg version="1.1" id="Layer_1" xmlns="http://www.w3.org/2000/svg" xmlns:xlink="http://www.w3.org/1999/xlink" x="0px" y="0px"
	 width="48px" height="48px" viewBox="0 0 48 48" enable-background="new 0 0 48 48" xml:space="preserve">
<path id="path4571" d="M26.189,25.641h9.775v9.774h-9.775V25.641z"/>
<path id="path4573" d="M13.096,25.641h9.775v9.774h-9.775V25.641z"/>
<path id="path4575" d="M0,25.641h9.775v9.774H0V25.641z"/>
<path id="path4581" d="M26.189,38.225h9.775V48h-9.775V38.225z"/>
<path id="path4583" d="M13.096,38.225h9.775V48h-9.775V38.225z"/>
<path id="path4585" d="M0,38.225h9.775V48H0V38.225z"/>
<path d="M40.537,0h-25.6c-2.005,0-3.82,0.805-5.162,2.096V0.474H0v9.775h7.476v2.809H0v9.775h9.775v-0.467
	c1.342,1.292,3.157,2.097,5.162,2.097h25.6c4.116,0,7.466-3.349,7.466-7.464V7.462C48.003,3.348,44.653,0,40.537,0z M46.631,17
	c0,3.36-2.734,6.091-6.094,6.091h-25.6c-3.358,0-6.089-2.731-6.089-6.091V7.462c0-3.357,2.731-6.089,6.089-6.089h25.6
	c3.359,0,6.094,2.732,6.094,6.089V17z"/>
<path d="M14.292,7.412h1.938v6.098c0,0.797-0.07,1.411-0.21,1.839c-0.188,0.561-0.529,1.011-1.024,1.351
	c-0.496,0.34-1.148,0.509-1.958,0.509c-0.951,0-1.684-0.266-2.196-0.798c-0.512-0.533-0.77-1.312-0.773-2.342l1.832-0.211
	c0.023,0.552,0.104,0.942,0.244,1.17c0.211,0.347,0.529,0.519,0.961,0.519c0.432,0,0.74-0.124,0.917-0.372
	c0.181-0.248,0.271-0.762,0.271-1.542V7.412z"/>
<path d="M17.807,13.91l1.895-0.184c0.114,0.636,0.345,1.103,0.693,1.401c0.348,0.298,0.816,0.447,1.409,0.447
	c0.626,0,1.098-0.134,1.416-0.398c0.318-0.265,0.476-0.574,0.476-0.929c0-0.229-0.067-0.422-0.201-0.583
	c-0.134-0.159-0.365-0.299-0.7-0.417c-0.228-0.079-0.747-0.22-1.557-0.42c-1.044-0.259-1.774-0.578-2.196-0.954
	c-0.589-0.529-0.887-1.175-0.887-1.938c0-0.491,0.141-0.949,0.418-1.376c0.278-0.429,0.68-0.753,1.202-0.976
	c0.526-0.224,1.155-0.336,1.895-0.336c1.212,0,2.122,0.266,2.731,0.795c0.612,0.531,0.935,1.239,0.964,2.124l-1.944,0.085
	c-0.084-0.495-0.265-0.852-0.536-1.068c-0.274-0.218-0.686-0.326-1.231-0.326c-0.566,0-1.008,0.117-1.329,0.348
	c-0.205,0.149-0.308,0.348-0.308,0.599c0,0.228,0.097,0.422,0.288,0.584c0.245,0.206,0.84,0.42,1.788,0.645
	c0.947,0.223,1.647,0.454,2.099,0.693c0.455,0.239,0.811,0.565,1.064,0.979c0.258,0.414,0.386,0.926,0.386,1.535
	c0,0.551-0.154,1.068-0.459,1.55c-0.308,0.482-0.74,0.84-1.302,1.075c-0.559,0.234-1.259,0.352-2.096,0.352
	c-1.219,0-2.153-0.281-2.805-0.844C18.325,15.808,17.934,14.988,17.807,13.91z"/>
<path d="M26.882,12.288c0-0.982,0.147-1.806,0.438-2.472c0.222-0.49,0.52-0.931,0.897-1.321c0.379-0.39,0.794-0.678,1.245-0.867
	c0.6-0.255,1.293-0.382,2.076-0.382c1.419,0,2.558,0.44,3.408,1.322c0.854,0.88,1.278,2.104,1.278,3.672
	c0,1.555-0.422,2.772-1.269,3.651c-0.844,0.879-1.976,1.317-3.392,1.317c-1.433,0-2.571-0.437-3.414-1.311
	C27.304,15.024,26.882,13.821,26.882,12.288z M28.884,12.221c0,1.091,0.255,1.918,0.757,2.48c0.506,0.564,1.145,0.846,1.918,0.846
	c0.777,0,1.413-0.28,1.912-0.839c0.495-0.557,0.743-1.396,0.743-2.512c0-1.105-0.241-1.928-0.727-2.472
	c-0.482-0.542-1.125-0.813-1.929-0.813c-0.8,0-1.446,0.274-1.938,0.823C29.132,10.284,28.884,11.113,28.884,12.221z"/>
<path d="M37.763,17.045V7.412h1.895l3.94,6.433V7.412h1.808v9.633h-1.952l-3.883-6.282v6.282H37.763z"/>
</svg>
