<?xml version="1.0" encoding="utf-8"?>
<!-- Generator: Adobe Illustrator 16.0.0, SVG Export Plug-In . SVG Version: 6.00 Build 0)  -->
<!DOCTYPE svg PUBLIC "-//W3C//DTD SVG 1.1//EN" "http://www.w3.org/Graphics/SVG/1.1/DTD/svg11.dtd">
<svg version="1.1" id="Layer_1" xmlns="http://www.w3.org/2000/svg" xmlns:xlink="http://www.w3.org/1999/xlink" x="0px" y="0px"
	 width="48px" height="48px" viewBox="0 0 48 48" enable-background="new 0 0 48 48" xml:space="preserve">
<path d="M40.376,0H14.505c-1.032,0-2.015,0.211-2.911,0.592H0v47.312h35.17V24.949h5.206c4.158,0,7.54-3.413,7.54-7.607V7.608
	C47.916,3.413,44.534,0,40.376,0z M2.889,6.593h4.178C7.022,6.928,6.965,7.259,6.965,7.608V8.87H2.889V6.593z M2.889,10.724h4.076
	V13H2.889V10.724z M2.889,14.852h4.076v2.276H2.889V14.852z M2.889,18.984h4.264c0.179,0.819,0.504,1.58,0.923,2.277H2.889V18.984z
	 M32.281,41.902H2.889v-2.277h29.393L32.281,41.902L32.281,41.902z M32.281,37.775H2.889v-2.277h29.393L32.281,37.775L32.281,37.775
	z M32.281,33.643H2.889v-2.276h29.393L32.281,33.643L32.281,33.643z M32.281,29.516H2.889v-2.276h29.393L32.281,29.516
	L32.281,29.516z M32.281,25.389H2.889v-2.278h6.759c1.316,1.13,2.999,1.838,4.858,1.838h17.776L32.281,25.389L32.281,25.389z
	 M46.529,17.342c0,3.43-2.76,6.221-6.153,6.221H14.505c-3.393,0-6.153-2.791-6.153-6.221V7.608c0-3.43,2.76-6.221,6.153-6.221
	h25.871c3.394,0,6.153,2.791,6.153,6.221V17.342z"/>
<path d="M11.917,18.435V6.512h3.826c1.448,0,2.392,0.06,2.835,0.18c0.676,0.179,1.241,0.568,1.698,1.167s0.683,1.373,0.683,2.322
	c0,0.73-0.132,1.346-0.393,1.845c-0.264,0.499-0.599,0.892-1.004,1.176c-0.406,0.284-0.815,0.474-1.235,0.565
	c-0.568,0.113-1.394,0.171-2.473,0.171h-1.556v4.498L11.917,18.435L11.917,18.435z M14.299,8.53v3.382h1.306
	c0.94,0,1.57-0.062,1.884-0.188c0.318-0.125,0.565-0.32,0.744-0.585c0.183-0.266,0.271-0.575,0.271-0.927
	c0-0.435-0.125-0.792-0.378-1.074c-0.25-0.283-0.572-0.458-0.958-0.528c-0.284-0.054-0.856-0.081-1.715-0.081h-1.154V8.53z"/>
<path d="M22.908,6.512h4.357c0.983,0,1.731,0.076,2.25,0.229c0.688,0.206,1.284,0.572,1.778,1.098
	c0.493,0.526,0.869,1.169,1.126,1.932c0.258,0.761,0.387,1.701,0.387,2.818c0,0.981-0.119,1.827-0.363,2.539
	c-0.293,0.866-0.717,1.569-1.264,2.104c-0.414,0.406-0.972,0.724-1.676,0.951c-0.523,0.169-1.229,0.254-2.109,0.254h-4.486V6.512z
	 M25.293,8.53v7.895h1.779c0.666,0,1.146-0.037,1.439-0.111c0.391-0.098,0.707-0.264,0.965-0.498
	c0.254-0.233,0.463-0.616,0.623-1.152c0.162-0.533,0.242-1.262,0.242-2.184s-0.08-1.628-0.242-2.123
	c-0.16-0.492-0.387-0.877-0.678-1.153c-0.287-0.277-0.656-0.463-1.104-0.562c-0.332-0.076-0.983-0.113-1.955-0.113h-1.07V8.53z"/>
<path d="M34.842,18.435V6.512h8.096V8.53h-5.711v2.821h4.93v2.017h-4.93v5.067H34.842z"/>
</svg>
