<?xml version="1.0" encoding="utf-8"?>
<!-- Generator: Adobe Illustrator 16.0.0, SVG Export Plug-In . SVG Version: 6.00 Build 0)  -->
<!DOCTYPE svg PUBLIC "-//W3C//DTD SVG 1.1//EN" "http://www.w3.org/Graphics/SVG/1.1/DTD/svg11.dtd">
<svg version="1.1" id="Layer_1" xmlns="http://www.w3.org/2000/svg" xmlns:xlink="http://www.w3.org/1999/xlink" x="0px" y="0px"
	 width="48px" height="48px" viewBox="0 0 48 48" enable-background="new 0 0 48 48" xml:space="preserve">
<path d="M22.061,21.779c-0.689,1.694-1.614,3.75-3.07,6.366c-0.572,1.03-1.138,2.008-1.681,2.934
	c3.067-1.113,6.529-2.031,10.517-2.784c-0.234-0.174-0.462-0.347-0.677-0.52C25.147,26.162,23.44,24.15,22.061,21.779z"/>
<path d="M23.27,10.399h-0.021l0.003-0.167c0-0.673,0.007-1.798-0.358-2.565c-0.405-0.851-0.713-1.242-0.901-1.423
	c-0.054,0.114-0.094,0.26-0.117,0.43c-0.157,0.819-0.198,1.81-0.198,2.272c0,1.411,0.231,3.146,0.653,4.932
	C22.616,12.83,23.135,10.888,23.27,10.399z"/>
<path d="M6.053,41.16c1.155-0.545,2.923-2.118,5.544-6.009c-0.314,0.238-0.549,0.417-0.629,0.476
	C8.404,37.629,6.586,39.939,6.053,41.16z"/>
<path d="M42.035,29.891l-0.277-0.109c-1.072-0.323-3.11-0.424-5.799-0.244c2.48,0.992,4.808,1.599,6.24,1.599
	c0.459,0,0.696-0.065,0.817-0.119c0.04-0.02,0.12-0.097,0.204-0.195C42.725,30.158,42.725,30.158,42.035,29.891z"/>
<path d="M0,0v48h47.998V0H0z M44.383,30.861l-0.067,0.521c-0.03,0.151-0.157,0.655-0.358,0.956
	c-0.271,0.349-0.757,0.726-1.289,0.857c-0.342,0.087-0.767,0.132-1.259,0.132c-2.759,0-7.135-1.324-10.697-3.232
	c-4.66,0.665-9.977,1.868-14.654,3.316c-4.055,6.729-7.001,9.733-9.542,9.733c-0.476,0-0.938-0.104-1.376-0.312l-0.988-0.479
	c-0.565-0.302-0.81-0.984-0.646-1.752c0.392-1.832,2.759-4.14,6.328-6.17c0.415-0.241,2.283-1.179,2.283-1.179l1.148-0.71
	c1.011-1.659,2.099-3.563,3.231-5.668l0.164-0.312c1.162-2.169,2.481-4.627,3.532-7.062l0.365-0.846
	c-1.473-5.367-2.283-9.514-1.493-12.282c0.268-0.911,1.266-1.519,2.491-1.519l0.579,0.013c1.704,0,2.437,1.761,2.528,2.566
	c0.101,0.879-0.194,2.146-0.345,2.708l-0.023,0.397c-0.084,1.542-0.308,5.121-0.589,6.336c-0.064,0.263-0.131,0.522-0.204,0.787
	c1.202,3.114,3.121,5.945,5.417,7.985c0.867,0.771,1.991,1.418,2.999,1.969c2.214-0.296,4.34-0.452,6.157-0.452l0.335,0.002
	c2.775,0.037,4.597,0.447,5.414,1.217c0.419,0.386,0.656,0.885,0.717,1.525c0.01,0.191-0.034,0.443-0.168,0.947L44.383,30.861z"/>
</svg>
