<?xml version="1.0" encoding="UTF-8" standalone="no"?>
<!-- Created with Inkscape (http://www.inkscape.org/) -->

<svg
   xmlns:dc="http://purl.org/dc/elements/1.1/"
   xmlns:cc="http://creativecommons.org/ns#"
   xmlns:rdf="http://www.w3.org/1999/02/22-rdf-syntax-ns#"
   xmlns:svg="http://www.w3.org/2000/svg"
   xmlns="http://www.w3.org/2000/svg"
   version="1.1"
   width="48"
   height="48"
   viewBox="0 0 48 48"
   id="Layer_1"
   xml:space="preserve"><metadata
   id="metadata4238"><rdf:RDF><cc:Work
       rdf:about=""><dc:format>image/svg+xml</dc:format><dc:type
         rdf:resource="http://purl.org/dc/dcmitype/StillImage" /><dc:title></dc:title></cc:Work></rdf:RDF></metadata><defs
   id="defs4236" />

<g
   transform="matrix(3.3856343,0,0,3.3856343,-1312.2162,-1331.2547)"
   id="g4723"
   style="display:inline"><path
     d="m 395.33347,400.79297 2.87968,0 0,2.87968 -2.87968,0 z"
     id="path4606"
     style="color:#000000;fill:#000000;fill-opacity:1;stroke:none;stroke-width:1.70000005;marker:none;visibility:visible;display:inline;overflow:visible;enable-background:accumulate" /><path
     d="m 391.47605,400.79297 2.87961,0 0,2.87968 -2.87961,0 z"
     id="path4608"
     style="color:#000000;fill:#000000;fill-opacity:1;stroke:none;stroke-width:1.70000005;marker:none;visibility:visible;display:inline;overflow:visible;enable-background:accumulate" /><path
     d="m 387.61856,400.79297 2.87969,0 0,2.87968 -2.87969,0 z"
     id="path4610"
     style="color:#000000;fill:#000000;fill-opacity:1;stroke:none;stroke-width:1.70000005;marker:none;visibility:visible;display:inline;overflow:visible;enable-background:accumulate" /><path
     d="m 15.0625,0.15625 c -1.999131,0 -3.832947,0.78692998 -5.1875,2.0625 l 0,-1.625 -9.75,0 0,9.75 7.40625,0 0,2.78125 -7.40625,0 0,9.75 9.75,0 0,-0.46875 c 1.354553,1.27557 3.188369,2.0625 5.1875,2.0625 l 25.5,0 c 4.107689,0 7.40625,-3.298561 7.40625,-7.40625 l 0,-9.5 c 0,-4.1076885 -3.298561,-7.40625 -7.40625,-7.40625 l -25.5,0 z m 0,1.375 25.5,0 c 3.380861,0 6.03125,2.6503894 6.03125,6.03125 l 0,9.5 c 0,3.380861 -2.650389,6.03125 -6.03125,6.03125 l -25.5,0 c -3.380861,0 -6.15625,-2.650389 -6.15625,-6.03125 l 0,-9.5 c 0,-3.3808606 2.775389,-6.03125 6.15625,-6.03125 z"
     transform="matrix(0.29536563,0,0,0.29536563,387.58356,393.20688)"
     id="path4612"
     style="color:#000000;fill:#000000;fill-opacity:1;stroke:none;stroke-width:1.70000005;marker:none;visibility:visible;display:inline;overflow:visible;enable-background:accumulate" /><path
     d="m 395.33347,404.49974 2.87968,0 0,2.87968 -2.87968,0 z"
     id="path4617"
     style="color:#000000;fill:#000000;fill-opacity:1;stroke:none;stroke-width:1.70000005;marker:none;visibility:visible;display:inline;overflow:visible;enable-background:accumulate" /><path
     d="m 391.47605,404.49974 2.87961,0 0,2.87968 -2.87961,0 z"
     id="path4619"
     style="color:#000000;fill:#000000;fill-opacity:1;stroke:none;stroke-width:1.70000005;marker:none;visibility:visible;display:inline;overflow:visible;enable-background:accumulate" /><path
     d="m 387.61856,404.49974 2.87969,0 0,2.87968 -2.87969,0 z"
     id="path4621"
     style="color:#000000;fill:#000000;fill-opacity:1;stroke:none;stroke-width:1.70000005;marker:none;visibility:visible;display:inline;overflow:visible;enable-background:accumulate" /><g
     id="text4625"
     style="font-size:4.80829239px;font-style:normal;font-weight:normal;line-height:125%;letter-spacing:0px;word-spacing:0px;fill:#000000;fill-opacity:1;stroke:none;display:inline;font-family:Sans"><path
       d="m 392.75836,398.5639 0,-3.44187 1.11521,0 c 0.4226,0 0.69807,0.0172 0.82642,0.0516 0.19721,0.0517 0.36234,0.16396 0.49539,0.33691 0.13304,0.17296 0.19956,0.39639 0.19956,0.6703 0,0.2113 -0.0384,0.38895 -0.11504,0.53295 -0.0767,0.144 -0.17413,0.25708 -0.2923,0.33926 -0.11818,0.0822 -0.23831,0.13656 -0.36039,0.16317 -0.16591,0.0329 -0.40617,0.0493 -0.72078,0.0493 l -0.45312,0 0,1.29833 z m 0.69495,-2.85962 0,0.97669 0.38034,0 c 0.27391,0 0.45704,-0.018 0.54939,-0.054 0.0923,-0.036 0.16473,-0.0923 0.21717,-0.16904 0.0524,-0.0767 0.0786,-0.16591 0.0786,-0.26765 0,-0.12521 -0.0368,-0.22852 -0.11035,-0.30991 -0.0736,-0.0814 -0.16669,-0.13226 -0.27938,-0.15261 -0.083,-0.0156 -0.24966,-0.0235 -0.50009,-0.0235 z"
       id="path3787"
       style="font-weight:bold;-inkscape-font-specification:Sans Bold" /><path
       d="m 395.62033,398.5639 1.17625,-1.79606 -1.06591,-1.64581 0.81234,0 0.69026,1.10581 0.67616,-1.10581 0.8053,0 -1.0706,1.67163 1.17625,1.77024 -0.83817,0 -0.76303,-1.19033 -0.76538,1.19033 z"
       id="path3789"
       style="font-weight:bold;-inkscape-font-specification:Sans Bold" /></g></g></svg>